<?xml version="1.0" encoding="iso-8859-1"?>
<!-- Uploaded to: SVG Repo, www.svgrepo.com, Generator: SVG Repo Mixer Tools -->
<svg fill="#000000" height="800px" width="800px" version="1.1" id="Layer_1" xmlns="http://www.w3.org/2000/svg" xmlns:xlink="http://www.w3.org/1999/xlink" 
	 viewBox="0 0 512 512" xml:space="preserve">
<g>
	<g>
		<path d="M418.263,195.598c-0.083-0.144-8.242-14.548-8.242-26.708c0-8.841,3.948-19.132,3.984-19.226
			c2.429-6.222,0.783-14.174-3.914-18.909l-89.027-89.727c-2.683-2.704-6.263-4.194-10.079-4.194s-7.395,1.49-10.077,4.194
			l-130.363,131.39c-2.411-0.97-5.005-1.486-7.685-1.486c-5.525,0-10.708,2.156-14.594,6.071L6,320.386c-8,8.063-8,21.181,0,29.242
			L138.41,483.08c3.885,3.914,9.068,6.07,14.592,6.07s10.707-2.156,14.593-6.071l97.494-98.261
			c3.048-3.072,3.029-8.034-0.044-11.083c-3.072-3.048-8.033-3.03-11.082,0.044l-97.493,98.26c-0.921,0.927-2.151,1.437-3.467,1.437
			c-1.317,0-2.547-0.51-3.466-1.437L17.126,338.589c-1.926-1.941-1.926-5.22,0.001-7.163L159.39,188.043
			c0.921-0.927,2.152-1.437,3.468-1.437c1.317,0,2.549,0.51,3.467,1.436l14.846,14.963c3.049,3.073,8.011,3.093,11.082,0.044
			c3.072-3.049,3.092-8.01,0.044-11.082l-9.535-9.61l36.119-36.403l34.108,34.377l-36.118,36.402l-1.765-1.779
			c-3.049-3.072-8.011-3.093-11.083-0.044c-3.072,3.049-3.092,8.01-0.044,11.083l94.753,95.501c1.927,1.941,1.927,5.222,0,7.164
			l-21.962,22.135c-3.048,3.072-3.028,8.034,0.044,11.082c1.529,1.516,3.523,2.274,5.519,2.274c2.016,0,4.031-0.773,5.563-2.318
			l21.962-22.134c5.999-6.047,7.499-14.938,4.499-22.406l101.36-102.157C420.692,210.121,421.785,201.719,418.263,195.598z
			 M387.535,130.274l-36.818,37.109l-31.4-31.647l36.818-37.108L387.535,130.274z M310.985,53.125l34.11,34.376l-36.818,37.108
			l-34.109-34.376L310.985,53.125z M229.923,134.826l33.206-33.467l34.108,34.377l-33.206,33.467L229.923,134.826z M227.912,227.859
			l36.119-36.403l2.126,2.144c1.533,1.543,3.547,2.317,5.563,2.317c1.995,0,3.992-0.758,5.519-2.274
			c3.072-3.049,3.092-8.011,0.044-11.083l-2.213-2.231l33.206-33.467l31.399,31.647l-33.206,33.468l-5.341-5.383
			c-3.049-3.072-8.011-3.092-11.082-0.044c-3.073,3.049-3.092,8.01-0.044,11.083l5.427,5.471l-36.118,36.403L227.912,227.859z
			 M304.461,305.013l-34.111-34.378l36.119-36.403l34.111,34.378L304.461,305.013z M351.621,257.482l-34.11-34.378l33.206-33.467
			l34.111,34.378L351.621,257.482z M404.522,204.165l-8.656,8.724l-34.11-34.378l36.818-37.109l0.365,0.368
			c0.352,0.427,0.611,1.696,0.465,2.196c-0.206,0.529-5.057,13.09-5.057,24.926c0,16.001,9.438,32.956,10.28,34.436
			C404.676,203.542,404.622,203.964,404.522,204.165z"/>
	</g>
</g>
<g>
	<g>
		<path d="M224.185,307.426c-8.081-8.146-18.44-13.152-29.522-14.343c-1.165-11.154-6.126-21.589-14.206-29.732
			c-9.064-9.137-20.988-14.326-33.582-14.61c-12.736-0.29-24.611,4.483-33.404,13.346c-8.806,8.875-13.499,20.801-13.214,33.576
			l1.641,75.237c0.086,4.077,1.729,7.934,4.636,10.864c2.911,2.93,6.762,4.593,10.843,4.686l74.657,1.658
			c0.358,0.008,0.714,0.013,1.069,0.013c12.307,0,23.791-4.745,32.336-13.359c8.801-8.871,13.494-20.796,13.214-33.577
			C238.374,328.539,233.235,316.549,224.185,307.426z M214.313,363.723c-5.746,5.792-13.56,8.895-21.929,8.716l-74.635-1.656
			c-0.011-0.003-0.051-0.021-0.092-0.062c-0.067-0.068-0.087-0.138-0.089-0.157l-1.64-75.248
			c-0.189-8.485,2.891-16.365,8.672-22.191c5.581-5.626,13.112-8.724,21.207-8.724c0.239,0,0.48,0.003,0.717,0.008
			c8.515,0.193,16.614,3.737,22.806,9.979c6.206,6.253,9.729,14.444,9.92,23.067l0.075,3.304c0.096,4.191,3.472,7.564,7.664,7.656
			l3.267,0.071c8.514,0.193,16.612,3.737,22.803,9.976c6.211,6.261,9.736,14.452,9.926,23.065
			C223.171,350.017,220.09,357.898,214.313,363.723z"/>
	</g>
</g>
<g>
	<g>
		<path d="M467.634,54.317l-27.061-27.273c-2.683-2.704-6.263-4.194-10.078-4.194c-3.814,0-7.394,1.49-10.078,4.194l-27.063,27.274
			c-5.505,5.549-5.506,14.584,0.001,20.14l27.062,27.272c2.683,2.704,6.263,4.194,10.078,4.194c3.814,0,7.394-1.49,10.078-4.194
			l27.064-27.275C473.141,68.902,473.14,59.868,467.634,54.317z M430.494,89.634l-25.051-25.246l25.051-25.247l25.052,25.247
			L430.494,89.634z"/>
	</g>
</g>
<g>
	<g>
		<path d="M472.21,252.334l-17.773-17.915c-2.683-2.704-6.263-4.194-10.079-4.194c-3.816,0-7.396,1.491-10.077,4.194l-17.776,17.915
			c-5.509,5.553-5.509,14.588,0.001,20.141l17.772,17.91c2.682,2.707,6.263,4.198,10.079,4.198s7.396-1.49,10.079-4.195
			l17.774-17.913C477.72,266.922,477.72,257.887,472.21,252.334z M444.36,278.291l-15.766-15.888l15.766-15.889l15.763,15.889
			L444.36,278.291z"/>
	</g>
</g>
<g>
	<g>
		<path d="M507.868,151.843l-17.774-17.915c-2.683-2.704-6.263-4.194-10.079-4.194c-3.816,0-7.396,1.491-10.077,4.194
			l-17.776,17.915c-5.509,5.553-5.509,14.588,0.001,20.141l17.772,17.91c2.682,2.707,6.263,4.198,10.079,4.198
			c3.816,0,7.396-1.49,10.079-4.195l17.774-17.913C513.377,166.431,513.377,157.396,507.868,151.843z M480.018,177.801
			l-15.766-15.888l15.766-15.889l15.763,15.889L480.018,177.801z"/>
	</g>
</g>
</svg>