<?xml version="1.0" encoding="iso-8859-1"?>
<!-- Uploaded to: SVG Repo, www.svgrepo.com, Generator: SVG Repo Mixer Tools -->
<svg fill="#000000" height="800px" width="800px" version="1.1" id="Layer_1" xmlns="http://www.w3.org/2000/svg" xmlns:xlink="http://www.w3.org/1999/xlink" 
	 viewBox="0 0 511.88 511.88" xml:space="preserve">
<g>
	<g>
		<path d="M367.952,501.152l-0.012-1.272l0.012-1.276c0.036-3.088,0.08-6.284-2.224-8.62c-1.38-1.396-3.276-2.104-5.64-2.104H333.94
			c-2.208,0-4,1.788-4,4c0,2.212,1.792,4,4,4h25.972c0.064,0.716,0.048,1.82,0.04,2.62l-0.012,1.38l0.008,1.38
			c0.012,0.8,0.028,1.9-0.04,2.62H100.032c-3.484,0-9.46-2.656-10.136-3.772c0.676-1.528,6.648-4.228,10.136-4.228H301.94
			c2.208,0,4-1.788,4-4c0-2.212-1.792-4-4-4H100.032c-5.408,0-18.092,4.064-18.092,12.12c0,7.836,12.68,11.88,18.092,11.88h260.056
			c2.364,0,4.26-0.708,5.64-2.108C368.036,507.436,367.992,504.24,367.952,501.152z"/>
	</g>
</g>
<g>
	<g>
		<path d="M349.94,155.88h-248c-2.208,0-4,1.788-4,4v332c0,2.212,1.792,4,4,4s4-1.788,4-4v-328h240v328c0,2.212,1.792,4,4,4
			s4-1.788,4-4v-332C353.94,157.668,352.148,155.88,349.94,155.88z"/>
	</g>
</g>
<g>
	<g>
		<path d="M230.064,80.252c-71.648,0-127.776,27.452-127.776,62.5c0,2.212,1.792,4,4,4c2.208,0,4-1.788,4-4
			c0-29.544,54.852-54.5,119.776-54.5s119.776,24.956,119.776,54.5c0,2.212,1.792,4,4,4s4-1.788,4-4
			C357.84,107.704,301.712,80.252,230.064,80.252z"/>
	</g>
</g>
<g>
	<g>
		<path d="M349.94,363.88h-248c-2.208,0-4,1.788-4,4c0,2.212,1.792,4,4,4h248c2.208,0,4-1.788,4-4
			C353.94,365.668,352.148,363.88,349.94,363.88z"/>
	</g>
</g>
<g>
	<g>
		<path d="M225.94,31.88c-2.208,0-4,1.788-4,4v48c0,2.212,1.792,4,4,4s4-1.788,4-4v-48C229.94,33.668,228.148,31.88,225.94,31.88z"
			/>
	</g>
</g>
<g>
	<g>
		<path d="M225.94,155.88c-2.208,0-4,1.788-4,4v108c0,2.212,1.792,4,4,4s4-1.788,4-4v-108
			C229.94,157.668,228.148,155.88,225.94,155.88z"/>
	</g>
</g>
<g>
	<g>
		<path d="M230.06,0c-11.028,0-20.004,8.972-20.004,20s8.976,20,20.004,20c11.032,0,20.004-8.972,20.004-20S241.088,0,230.06,0z
			 M230.06,32c-6.62,0-12.004-5.384-12.004-12S223.44,8,230.06,8s12.004,5.384,12.004,12S236.68,32,230.06,32z"/>
	</g>
</g>
<g>
	<g>
		<path d="M301.94,139.88h-196c-2.208,0-4,1.788-4,4c0,2.212,1.792,4,4,4h196c2.208,0,4-1.788,4-4
			C305.94,141.668,304.148,139.88,301.94,139.88z"/>
	</g>
</g>
<g>
	<g>
		<path d="M349.94,139.88h-16c-2.208,0-4,1.788-4,4c0,2.212,1.792,4,4,4h16c2.208,0,4-1.788,4-4
			C353.94,141.668,352.148,139.88,349.94,139.88z"/>
	</g>
</g>
<g>
	<g>
		<path d="M105.272,147.88c2.208,0,4-1.788,4-4c0-2.212-1.792-4-4-4c-6.124,0-10.744,5.228-10.744,12.16
			c0,10.984,7.3,11.84,9.536,11.84c2.208,0,4-1.788,4-4c0-2.212-1.792-4-4-4c-0.5,0-1.536,0-1.536-3.84
			C102.528,150.368,103.26,147.88,105.272,147.88z"/>
	</g>
</g>
<g>
	<g>
		<path d="M352.44,139.88c-2.208,0-4,1.788-4,4c0,2.212,1.792,4,4,4c2.304,0,5.48,2.408,5.48,4.16c0,2.048-1.664,3.712-3.712,3.712
			c-2.208,0-4,1.788-4,4c0,2.212,1.792,4,4,4c6.46,0,11.712-5.256,11.712-11.712C365.92,145.304,358.544,139.88,352.44,139.88z"/>
	</g>
</g>
<g>
	<g>
		<path d="M353.828,269.288c-0.54-2.148-2.716-3.44-4.856-2.904c-3.432,0.864-6.26,2-8.756,3c-3.484,1.4-6.488,2.604-10.652,3.008
			c-0.196,0.016-0.388,0.048-0.572,0.096c-8.616-0.12-11.72-1.868-14.996-3.716c-3.552-2.004-7.58-4.276-16.812-4.276
			c-9.452,0-14.244,2.34-18.476,4.408c-3.952,1.928-7.364,3.592-14.964,3.592c-7.616,0-11.108-1.672-15.152-3.608
			c-4.3-2.06-9.176-4.392-18.608-4.392c-9.42,0-14.336,2.328-18.668,4.388c-4.092,1.936-7.628,3.612-15.248,3.612
			c-7.624,0-11.176-1.676-15.292-3.616c-4.356-2.056-9.292-4.384-18.708-4.384s-14.36,2.328-18.724,4.38
			c-4.128,1.944-7.692,3.62-15.316,3.62c-7.892,0-11.984-1.852-16.32-3.808c-1.176-0.532-2.348-1.06-3.572-1.552
			c-2.056-0.828-4.38,0.176-5.2,2.228s0.176,4.38,2.228,5.204c1.112,0.448,2.176,0.928,3.248,1.412c4.688,2.116,10,4.52,19.612,4.52
			c9.416,0,14.36-2.328,18.724-4.38c4.128-1.944,7.688-3.62,15.316-3.62s11.18,1.676,15.296,3.616
			c4.356,2.056,9.288,4.384,18.704,4.384c9.42,0,14.336-2.332,18.672-4.388c4.088-1.936,7.62-3.612,15.24-3.612
			c7.616,0,11.108,1.672,15.152,3.608c4.3,2.06,9.176,4.392,18.608,4.392c9.452,0,14.244-2.34,18.476-4.408
			c3.952-1.928,7.364-3.592,14.964-3.592c7.132,0,9.668,1.436,12.884,3.248c3.952,2.224,8.432,4.752,19.88,4.752
			c0.476,0,0.932-0.088,1.364-0.252c4.808-0.596,8.404-2.036,11.888-3.436c2.372-0.952,4.82-1.932,7.732-2.668
			C353.068,273.604,354.368,271.428,353.828,269.288z"/>
	</g>
</g>
<g>
	<g>
		<path d="M253.492,324.216c-2.208,0-4,1.788-4,4c0,1.992-1.624,3.612-3.616,3.612s-3.616-1.62-3.616-3.612
			c0-1.996,1.62-3.616,3.616-3.616c2.208,0,4-1.788,4-4c0-2.212-1.792-4-4-4c-6.404,0-11.616,5.208-11.616,11.616
			c0,6.4,5.208,11.612,11.616,11.612c6.408,0,11.62-5.208,11.616-11.612C257.492,326.004,255.7,324.216,253.492,324.216z"/>
	</g>
</g>
<g>
	<g>
		<path d="M313.616,304.372c-2.208,0-4,1.788-4,4c0,1.996-1.624,3.616-3.62,3.616c-1.992,0-3.616-1.62-3.616-3.616
			c0-1.996,1.62-3.616,3.616-3.616c2.208,0,4-1.788,4-4c0-2.212-1.792-4-4-4c-6.404,0-11.616,5.212-11.616,11.616
			s5.208,11.616,11.616,11.616c6.408,0,11.62-5.208,11.62-11.616C317.616,306.16,315.824,304.372,313.616,304.372z"/>
	</g>
</g>
<g>
	<g>
		<path d="M206.052,324.056c-2.208,0-4,1.788-4,4c0,1.996-1.624,3.616-3.616,3.616s-3.616-1.62-3.616-3.616
			c0-1.992,1.62-3.612,3.616-3.612c2.208,0,4-1.788,4-4c0-2.212-1.792-4-4-4c-6.404,0-11.616,5.208-11.616,11.612
			s5.208,11.616,11.616,11.616c6.408,0,11.616-5.208,11.616-11.616C210.052,325.844,208.26,324.056,206.052,324.056z"/>
	</g>
</g>
<g>
	<g>
		<path d="M153.22,304.372c-2.208,0-4,1.788-4,4c0,1.996-1.624,3.616-3.616,3.616s-3.616-1.62-3.616-3.616
			c0-1.996,1.62-3.616,3.616-3.616c2.208,0,4-1.788,4-4c0-2.212-1.792-4-4-4c-6.404,0-11.616,5.212-11.616,11.616
			s5.208,11.616,11.616,11.616c6.408,0,11.616-5.208,11.616-11.616C157.22,306.16,155.428,304.372,153.22,304.372z"/>
	</g>
</g>
<g>
	<g>
		<path d="M208.916,293.476c-1.824-1.82-5.292-1.256-6.444,1.048c-0.276,0.552-0.42,1.168-0.42,1.788c0,2.212,1.812,4.02,4.02,4.02
			c1.788,0,3.376-1.208,3.864-2.932C210.332,296.004,209.944,294.504,208.916,293.476z"/>
	</g>
</g>
<g>
	<g>
		<path d="M157.888,341.924c-0.74-1.116-2.008-1.796-3.344-1.796c-1.64,0-3.132,1.016-3.736,2.54
			c-0.188,0.468-0.284,0.972-0.284,1.48c0,2.212,1.812,4.016,4.02,4.016c1.724,0,3.268-1.124,3.808-2.764
			C158.74,344.232,158.572,342.948,157.888,341.924z"/>
	</g>
</g>
<g>
	<g>
		<path d="M289.08,332.992c-1.82-1.82-5.288-1.252-6.44,1.048c-0.276,0.552-0.42,1.168-0.42,1.788c0,2.212,1.812,4.02,4.02,4.02
			c1.788,0,3.372-1.212,3.86-2.932C290.496,335.52,290.108,334.02,289.08,332.992z"/>
	</g>
</g>
<g>
	<g>
		<path d="M101.94,155.88h-44c-2.208,0-4,1.788-4,4c0,2.212,1.792,4,4,4h44c2.208,0,4-1.788,4-4
			C105.94,157.668,104.148,155.88,101.94,155.88z"/>
	</g>
</g>
<g>
	<g>
		<path d="M105.752,227.176l-44.444-69.452c-1.192-1.86-3.664-2.408-5.524-1.216s-2.404,3.668-1.212,5.528l44.444,69.452
			c0.764,1.192,2.052,1.844,3.372,1.844c0.74,0,1.484-0.204,2.152-0.628C106.4,231.512,106.944,229.036,105.752,227.176z"/>
	</g>
</g>
<g>
	<g>
		<path d="M382.092,155.88H349.94c-2.208,0-4,1.788-4,4c0,2.212,1.792,4,4,4h32.152c38.68,0,67.848,30.9,67.848,71.872v80.096
			c0,41.068-29.168,72.032-67.848,72.032H349.94c-2.208,0-4,1.788-4,4c0,2.212,1.792,4,4,4h32.152
			c43.24,0,75.848-34.408,75.848-80.032v-80.096C457.94,190.216,425.332,155.88,382.092,155.88z"/>
	</g>
</g>
<g>
	<g>
		<path d="M382.092,179.88H349.94c-2.208,0-4,1.788-4,4c0,2.212,1.792,4,4,4h32.152c25.408,0,43.848,20.132,43.848,47.872v80.096
			c0,27.832-18.44,48.032-43.848,48.032H349.94c-2.208,0-4,1.788-4,4c0,2.212,1.792,4,4,4h32.152
			c29.56,0,51.848-24.088,51.848-56.032v-80.096C433.94,203.9,411.652,179.88,382.092,179.88z"/>
	</g>
</g>
</svg>