<?xml version="1.0" encoding="iso-8859-1"?>
<!-- Uploaded to: SVG Repo, www.svgrepo.com, Generator: SVG Repo Mixer Tools -->
<!DOCTYPE svg PUBLIC "-//W3C//DTD SVG 1.1//EN" "http://www.w3.org/Graphics/SVG/1.1/DTD/svg11.dtd">
<svg fill="#000000" height="800px" width="800px" version="1.1" id="Capa_1" xmlns="http://www.w3.org/2000/svg" xmlns:xlink="http://www.w3.org/1999/xlink" 
	 viewBox="0 0 297 297" xml:space="preserve">
<path d="M295.915,77.655l-14.618-28.113c-2.446-4.705-8.244-6.537-12.948-4.088l-70.28,36.545c-4.705,2.445-6.536,8.242-4.09,12.947
	l2.696,5.186l-67.335,34.754l6.435-19.373c0.972-2.928,0.479-6.143-1.326-8.645c-1.805-2.502-4.701-3.984-7.787-3.984H22.61
	c-3.085,0-5.982,1.482-7.786,3.984c-1.806,2.502-2.299,5.717-1.326,8.645l12.073,36.352L0.367,240.403
	c-0.824,2.896-0.241,6.012,1.573,8.414c1.814,2.404,4.651,3.816,7.662,3.816h130.066c3.011,0,5.849-1.412,7.663-3.816
	c1.814-2.402,2.396-5.518,1.572-8.414l-23.331-81.963l79.962-41.271l3.063,5.891c1.175,2.26,3.199,3.959,5.627,4.727
	c0.944,0.299,1.919,0.445,2.892,0.445c1.528,0,3.049-0.365,4.43-1.082l70.28-36.547C296.532,88.157,298.362,82.358,295.915,77.655z
	 M22.319,233.43l22.532-79.154c0.528-1.854,0.484-3.826-0.123-5.656l-8.812-26.531h77.439l-8.813,26.533
	c-0.607,1.83-0.651,3.801-0.123,5.656l22.531,79.152H22.319z M221.205,105.682l-5.759-11.076l53.242-27.686l5.76,11.074
	L221.205,105.682z"/>
</svg>