<?xml version="1.0" ?><!-- Uploaded to: SVG Repo, www.svgrepo.com, Generator: SVG Repo Mixer Tools -->
<svg fill="#000000" width="800px" height="800px" viewBox="0 0 100 100" enable-background="new 0 0 100 100" id="Layer_1" version="1.1" xml:space="preserve" xmlns="http://www.w3.org/2000/svg" xmlns:xlink="http://www.w3.org/1999/xlink"><path d="M81.894,5h-3.591c-1.837,0-3.332,1.495-3.332,3.332v1.101c0,1.265,0.717,2.355,1.759,2.919v4.222l-11.373-0.011h-0.001  c-0.203,0-0.4,0.063-0.566,0.18L45.473,30.428v-2.117c1.724,0,3.128-1.403,3.128-3.129c0-1.724-1.403-3.128-3.128-3.128H34.21  c-1.724,0-3.128,1.403-3.128,3.128c0,1.725,1.403,3.129,3.128,3.129v2.697H15.752c-0.31,0-0.6,0.146-0.785,0.395  c-0.184,0.248-0.241,0.569-0.152,0.866l6.538,21.758c-0.927,0.469-1.57,1.421-1.57,2.529c0,0.717,0.275,1.364,0.714,1.865  c-0.439,0.501-0.714,1.149-0.714,1.866c0,1.119,0.656,2.08,1.598,2.544v2.867c0,2.448-0.686,4.839-1.982,6.915  c-1.492,2.388-2.281,5.138-2.281,7.951v13.459c0,0.541,0.438,0.978,0.978,0.978h43.489c0.541,0,0.978-0.438,0.978-0.978V80.563  c0-2.814-0.788-5.564-2.28-7.951c-1.296-2.076-1.982-4.467-1.982-6.915V62.83c0.942-0.463,1.598-1.424,1.598-2.544  c0-0.717-0.275-1.365-0.714-1.866c0.439-0.501,0.714-1.148,0.714-1.865c0-1.109-0.643-2.06-1.57-2.529l6.539-21.758  c0.089-0.296,0.032-0.617-0.152-0.866c-0.185-0.248-0.476-0.395-0.785-0.395h-7.635l10.871-7.696h15.322  c0.541,0,0.978-0.438,0.978-0.978v-9.981c1.042-0.564,1.759-1.654,1.759-2.919V8.332C85.226,6.495,83.731,5,81.894,5z M76.927,8.332  c0-0.759,0.617-1.376,1.376-1.376h3.591c0.759,0,1.376,0.617,1.376,1.376v1.101c0,0.759-0.617,1.376-1.376,1.376h-3.591  c-0.759,0-1.376-0.617-1.376-1.376V8.332z M33.039,25.182c0-0.646,0.525-1.171,1.171-1.171h11.262c0.646,0,1.171,0.525,1.171,1.171  c0,0.647-0.525,1.172-1.171,1.172h-0.978h-9.306H34.21C33.565,26.355,33.039,25.829,33.039,25.182z M36.167,28.311h7.349v2.697  h-7.349V28.311z M57.056,57.442H22.627c-0.489,0-0.887-0.397-0.887-0.887c0-0.489,0.397-0.888,0.887-0.888h34.429  c0.489,0,0.887,0.398,0.887,0.888C57.943,57.045,57.545,57.442,57.056,57.442z M57.943,60.286c0,0.489-0.397,0.887-0.887,0.887  H22.627c-0.489,0-0.887-0.397-0.887-0.887c0-0.489,0.397-0.888,0.887-0.888h34.429C57.545,59.399,57.943,59.797,57.943,60.286z   M19.075,93.043v-5.718h41.532v5.718H19.075z M58.625,73.649c1.296,2.075,1.982,4.466,1.982,6.914v4.806H19.075v-4.806  c0-2.447,0.686-4.838,1.983-6.914c1.492-2.388,2.28-5.138,2.28-7.952v-2.568h33.006v2.568  C56.344,68.511,57.133,71.261,58.625,73.649z M56.381,53.708H23.301l-6.234-20.743h18.121h9.306h0.472h8.254h9.395L56.381,53.708z   M81.511,21.355H66.856c-0.203,0-0.4,0.063-0.566,0.18l-13.381,9.473H48.04L65.667,18.52l12.04,0.012h0.001  c0.259,0,0.508-0.103,0.692-0.287c0.183-0.183,0.287-0.432,0.287-0.692v-4.788h2.825V21.355z"/></svg>