<?xml version="1.0" encoding="iso-8859-1"?>
<!-- Uploaded to: SVG Repo, www.svgrepo.com, Generator: SVG Repo Mixer Tools -->
<svg fill="#000000" height="800px" width="800px" version="1.1" id="Layer_1" xmlns="http://www.w3.org/2000/svg" xmlns:xlink="http://www.w3.org/1999/xlink" 
	 viewBox="0 0 512 512" xml:space="preserve">
<g>
	<g>
		<path d="M400.392,191.866c-12.547,0-24.237,3.633-34.063,9.861l-4.835-56.932l-0.139-1.16
			c-4.074-26.122-17.377-49.978-37.461-67.172c-10.613-9.086-22.782-15.99-35.791-20.505c2.207-4.943,3.445-10.41,3.445-16.164
			C291.547,17.852,273.696,0,251.754,0c-21.942,0-39.793,17.852-39.793,39.794c0,5.754,1.237,11.221,3.445,16.164
			c-13.01,4.515-25.178,11.418-35.791,20.505c-16.397,14.038-28.268,32.518-34.292,53.044H49.14l39.074,122.868h44.69L110.826,512
			h281.855l-12.503-147.227c48.063-14.648,82.683-58.178,82.683-106.719v-3.722C462.859,219.889,434.836,191.866,400.392,191.866z
			 M135.745,218.974h-23.104l-17.829-56.065h45.7L135.745,218.974z M251.754,33.402c3.525,0,6.392,2.868,6.392,6.392
			c0,3.524-2.867,6.392-6.392,6.392c-3.524,0-6.391-2.867-6.391-6.392C245.363,36.269,248.23,33.402,251.754,33.402z
			 M201.337,101.836c14.034-12.016,31.941-18.634,50.418-18.634c18.477,0,36.382,6.618,50.417,18.634
			c8.893,7.613,15.871,17.102,20.524,27.671H180.812C185.465,118.938,192.443,109.45,201.337,101.836z M147.185,478.598
			l26.813-315.69h155.514l26.812,315.69H147.185z M409.071,308.421c-8.853,9.642-19.797,17.143-31.815,21.968l-6.529-76.872h0.157
			c0-15.577,13.237-28.25,29.507-28.25c16.027,0,29.065,13.039,29.065,29.065v3.722h0.001
			C429.457,276.214,422.217,294.101,409.071,308.421z"/>
	</g>
</g>
</svg>