<?xml version="1.0" encoding="iso-8859-1"?>
<!-- Uploaded to: SVG Repo, www.svgrepo.com, Generator: SVG Repo Mixer Tools -->
<svg fill="#000000" height="800px" width="800px" version="1.1" id="Layer_1" xmlns="http://www.w3.org/2000/svg" xmlns:xlink="http://www.w3.org/1999/xlink" 
	 viewBox="0 0 512 512" xml:space="preserve">
<g>
	<g>
		<path d="M443.664,0H83.168C59.52,0,32,19.488,32,44.592V208c0,8.848,7.152,16,16,16s16-7.152,16-16V44.592
			C64,40.224,74.16,32,83.168,32h360.496c1.232,0,1.84,0.192,1.952,0.256c0.496,0.416,2.384,3.712,2.384,12.336V208
			c0,8.848,7.152,16,16,16c8.848,0,16-7.152,16-16V44.592C480,3.216,452.192,0,443.664,0z"/>
	</g>
</g>
<g>
	<g>
		<path d="M442.928,352H83.92C59.904,352,32,371.472,32,396.576V496c0,8.848,7.152,16,16,16h416c8.848,0,16-7.152,16-16v-99.424
			C480,363.696,460.848,352,442.928,352z M448,480H64v-83.424C64,392.32,74.752,384,83.92,384h359.008c1.248,0,5.072,0,5.072,12.576
			V480z"/>
	</g>
</g>
<g>
	<g>
		<path d="M183.152,48.192c-35.024,0-63.52,28.496-63.52,63.52c0,35.024,28.512,63.504,63.52,63.504
			c35.024,0,63.52-28.48,63.52-63.504C246.672,76.688,218.176,48.192,183.152,48.192z M183.152,143.232
			c-17.376,0-31.52-14.128-31.52-31.504c0-17.376,14.144-31.52,31.52-31.52c17.376,0,31.52,14.144,31.52,31.52
			C214.672,129.104,200.528,143.232,183.152,143.232z"/>
	</g>
</g>
<g>
	<g>
		<circle cx="295.76" cy="112.16" r="31.392"/>
	</g>
</g>
<g>
	<g>
		<circle cx="375.776" cy="111.712" r="31.408"/>
	</g>
</g>
<g>
	<g>
		<path d="M507.456,260.832l-62.848-64.448c-6.176-6.336-16.288-6.432-22.624-0.288c-6.336,6.176-6.464,16.288-0.288,22.624
			L480,278.512V336c0,8.848,7.152,16,16,16c8.848,0,16-7.152,16-16v-64C512,267.824,510.368,263.808,507.456,260.832z"/>
	</g>
</g>
<g>
	<g>
		<path d="M320,192c-8.848,0-16,7.152-16,16v25.184c0,3.424-0.256,5.552-0.496,6.816H222.72c-5.92,0-13.776-4.784-14.72-6.816V208
			c0-8.848-7.152-16-16-16s-16,7.152-16,16v25.184C176,256.88,203.68,272,222.72,272h81.856c9.456,0,31.424-3.776,31.424-38.816V208
			C336,199.152,328.848,192,320,192z"/>
	</g>
</g>
<g>
	<g>
		<path d="M416,352c-8.848,0-16,7.152-16,16v56.752c0,3.856-0.416,6.096-0.768,7.248H126.848c-5.92,0-13.952-5.04-14.848-7.248V368
			c0-8.848-7.152-16-16-16s-16,7.152-16,16v56.752C80,448.704,107.744,464,126.848,464h272.816c7.584,0,32.336-2.832,32.336-39.248
			V368C432,359.152,424.848,352,416,352z"/>
	</g>
</g>
<g>
	<g>
		<path d="M80,192c-8.848,0-16,7.152-16,16v160c0,8.848,7.152,16,16,16s16-7.152,16-16V208C96,199.152,88.848,192,80,192z"/>
	</g>
</g>
<g>
	<g>
		<path d="M432,192c-8.848,0-16,7.152-16,16v160c0,8.848,7.152,16,16,16c8.848,0,16-7.152,16-16V208
			C448,199.152,440.848,192,432,192z"/>
	</g>
</g>
<g>
	<g>
		<path d="M464,192H16c-8.848,0-16,7.152-16,16s7.152,16,16,16h448c8.848,0,16-7.152,16-16S472.848,192,464,192z"/>
	</g>
</g>
<g>
	<g>
		<path d="M267.36,260.64c-5.92-5.92-16.64-5.92-22.72,0c-3.04,3.024-4.64,7.2-4.64,11.36c0,4.16,1.6,8.32,4.64,11.36
			c3.024,2.88,7.2,4.64,11.36,4.64c4.16,0,8.32-1.76,11.36-4.64c2.88-3.04,4.64-7.2,4.64-11.36
			C272,267.664,270.24,263.664,267.36,260.64z"/>
	</g>
</g>
</svg>