<?xml version="1.0" encoding="iso-8859-1"?>
<!-- Uploaded to: SVG Repo, www.svgrepo.com, Generator: SVG Repo Mixer Tools -->
<svg fill="#000000" height="800px" width="800px" version="1.1" id="Layer_1" xmlns="http://www.w3.org/2000/svg" xmlns:xlink="http://www.w3.org/1999/xlink" 
	 viewBox="0 0 512 512" xml:space="preserve">
<g>
	<g>
		<path d="M497.947,342.417h-24.52h-4.978l13.991-183.242h1.775c7.753,0,14.042-6.28,14.053-14.033l0.075-52.767
			c0.006-3.731-1.473-7.31-4.109-9.95c-2.636-2.639-6.213-4.123-9.944-4.123h-37.822l-2.847-15.769
			c-1.207-6.691-7.031-11.557-13.83-11.557H311.353c-6.797,0-12.621,4.867-13.83,11.556L294.676,78.3h-37.822
			c-0.287,0-0.571,0.025-0.856,0.042c-0.285-0.017-0.569-0.042-0.856-0.042H217.32l-2.847-15.769
			c-1.207-6.689-7.031-11.556-13.83-11.556H82.208c-6.797,0-12.621,4.867-13.83,11.557l-2.847,15.769H27.708
			c-3.731,0-7.308,1.484-9.944,4.123c-2.635,2.639-4.115,6.219-4.109,9.95l0.074,52.767c0.011,7.753,6.3,14.033,14.053,14.033h1.775
			L43.55,342.417h-4.979H14.053C6.292,342.417,0,348.708,0,356.47c0,7.762,6.292,14.053,14.053,14.053h11.498l2.379,31.139
			l0.069,0.808c3.099,32.835,31.361,58.555,64.343,58.555h98.169c32.981,0,61.243-25.72,64.345-58.573l0.031-0.339
			c0.007-0.077,0.014-0.155,0.02-0.233l1.093-14.313l1.078,14.109l0.069,0.794c3.099,32.835,31.361,58.555,64.342,58.555h98.169
			c32.98,0,61.243-25.72,64.345-58.573l0.031-0.339c0.007-0.077,0.014-0.155,0.02-0.233l2.395-31.357h11.498
			c7.762,0,14.053-6.292,14.053-14.053S505.708,342.417,497.947,342.417z M226.891,399.622l-0.02,0.205
			c-1.751,18.556-17.722,33.089-36.361,33.089H92.341c-18.639,0-34.61-14.535-36.35-32.96l-2.253-29.436h4.978h165.417h4.978
			L226.891,399.622z M87.416,243.071l6.827,99.347H71.738L57.745,159.176h167.361l-13.993,183.242h-88.699l-6.959-101.273
			c-0.531-7.743-7.249-13.595-14.983-13.057C92.729,228.62,86.885,235.328,87.416,243.071z M42.579,131.067h-0.762l-0.035-24.66
			h35.491v0.001c6.797,0,12.621-4.867,13.83-11.557l2.847-15.769h94.952l2.847,15.769c1.207,6.689,7.031,11.556,13.83,11.556h35.491
			l-0.035,24.66h-0.762H42.579z M267.72,342.417H244.28h-4.978l13.991-183.242h1.775c0.315,0,0.623-0.027,0.932-0.046
			c0.309,0.02,0.617,0.046,0.932,0.046h1.775l13.991,183.242H267.72z M456.038,399.624l-0.018,0.205
			c-1.752,18.556-17.724,33.091-36.361,33.091h-98.169c-18.639,0-34.61-14.535-36.35-32.974l-2.253-29.422h4.978h165.417h4.978
			L456.038,399.624z M316.564,243.07l6.826,99.347h-22.505l-13.993-183.242h167.359l-13.99,183.242h-88.699l-6.959-101.273
			c-0.533-7.743-7.239-13.596-14.983-13.057C321.877,228.619,316.033,235.327,316.564,243.07z M271.726,131.07h-0.762l-0.035-24.66
			h35.491v-0.001c6.797,0,12.621-4.867,13.83-11.556l2.847-15.769h94.952l2.847,15.769c1.207,6.691,7.031,11.557,13.83,11.557
			h35.492l-0.035,24.66h-0.763H271.726z"/>
	</g>
</g>
</svg>