<?xml version="1.0" encoding="iso-8859-1"?>
<!-- Uploaded to: SVG Repo, www.svgrepo.com, Generator: SVG Repo Mixer Tools -->
<svg fill="#000000" height="800px" width="800px" version="1.1" id="Layer_1" xmlns="http://www.w3.org/2000/svg" xmlns:xlink="http://www.w3.org/1999/xlink" 
	 viewBox="0 0 490.667 490.667" xml:space="preserve">
<g>
	<g>
		<g>
			<path d="M213.333,96c0,5.888,4.779,10.667,10.667,10.667s10.667-4.779,10.667-10.667c0-6.528,3.392-10.667,8.896-16.896
				C249.109,72.853,256,65.088,256,53.333c0-11.712-6.784-18.965-12.224-24.789c-5.824-6.251-9.109-10.133-9.109-17.877
				C234.667,4.779,229.888,0,224,0s-10.667,4.779-10.667,10.667c0,16.512,8.576,25.728,14.848,32.427
				c4.715,5.035,6.485,7.232,6.485,10.24c0,3.499-2.56,6.528-7.061,11.605C221.589,71.744,213.333,81.045,213.333,96z"/>
			<path d="M277.333,96c0,5.888,4.779,10.667,10.667,10.667s10.667-4.779,10.667-10.667c0-6.528,3.392-10.667,8.896-16.896
				C313.109,72.853,320,65.088,320,53.333c0-11.712-6.784-18.965-12.224-24.789c-5.824-6.251-9.109-10.133-9.109-17.877
				C298.667,4.779,293.888,0,288,0s-10.667,4.779-10.667,10.667c0,16.512,8.576,25.728,14.848,32.427
				c4.715,5.035,6.485,7.232,6.485,10.24c0,3.499-2.56,6.528-7.061,11.605C285.589,71.744,277.333,81.045,277.333,96z"/>
			<path d="M394.667,426.667H32c-5.888,0-10.667,4.779-10.667,10.667c0,29.397,23.936,53.333,53.333,53.333H352
				c29.397,0,53.333-23.936,53.333-53.333C405.333,431.445,400.555,426.667,394.667,426.667z M352,469.333H74.667
				c-13.909,0-25.771-8.917-30.187-21.333h337.707C377.771,460.416,365.909,469.333,352,469.333z"/>
			<path d="M405.333,192c-7.339,0-14.507,1.365-21.333,3.84v-14.507C384,151.936,360.064,128,330.667,128H96
				c-29.397,0-53.333,23.936-53.333,53.333v85.333c0,76.459,62.208,138.667,138.667,138.667h64
				c60.395,0,111.744-38.869,130.731-92.843c9.045,4.757,19.008,7.509,29.269,7.509c35.285,0,64-28.715,64-64
				S440.619,192,405.333,192z M362.667,266.667c0,8.597-1.045,17.515-3.115,26.475C347.499,345.109,300.928,384,245.333,384h-64
				C116.629,384,64,331.371,64,266.667v-85.333c0-17.643,14.357-32,32-32h234.667c17.643,0,32,14.357,32,32V266.667z
				 M405.333,298.667c-8.384,0-16.576-2.581-23.616-7.36c0.043-0.213,0.021-0.427,0.064-0.661
				c1.365-7.808,2.219-15.787,2.219-23.979v-47.424c6.549-3.883,13.845-5.909,21.333-5.909C428.864,213.333,448,232.469,448,256
				C448,279.531,428.864,298.667,405.333,298.667z"/>
			<path d="M149.333,96c0,5.888,4.779,10.667,10.667,10.667s10.667-4.779,10.667-10.667c0-6.528,3.392-10.667,8.896-16.896
				C185.109,72.853,192,65.088,192,53.333c0-11.712-6.784-18.965-12.224-24.789c-5.824-6.251-9.109-10.133-9.109-17.877
				C170.667,4.779,165.888,0,160,0s-10.667,4.779-10.667,10.667c0,16.512,8.576,25.728,14.848,32.427
				c4.715,5.035,6.485,7.232,6.485,10.24c0,3.499-2.56,6.528-7.061,11.605C157.589,71.744,149.333,81.045,149.333,96z"/>
		</g>
	</g>
</g>
</svg>