<?xml version="1.0" encoding="iso-8859-1"?>
<!-- Uploaded to: SVG Repo, www.svgrepo.com, Generator: SVG Repo Mixer Tools -->
<svg fill="#000000" version="1.1" id="Layer_1" xmlns="http://www.w3.org/2000/svg" xmlns:xlink="http://www.w3.org/1999/xlink" 
	 viewBox="0 0 511.998 511.998" xml:space="preserve">
<g>
	<g>
		<path d="M220.184,263.902v-15.464h-15.626v46.879h15.626v-15.422h31.817v79.962c0,26.455-21.522,47.978-47.978,47.978v15.993
			c35.274-0.001,63.971-28.698,63.971-63.971v-95.955H220.184z"/>
	</g>
</g>
<g>
	<g>
		<path d="M12.115,247.91v212.561c0,28.295,23.019,51.314,51.314,51.314h81.284c28.295,0,51.314-23.019,51.314-51.314V247.91H12.115
			z M180.035,279.69h-11.938v15.626h11.938v165.154c0,19.477-15.845,35.322-35.321,35.322H63.428
			c-19.477,0-35.322-15.845-35.322-35.322V295.317h9.772V279.69h-9.772v-15.789h151.928V279.69z"/>
	</g>
</g>
<g>
	<g>
		<rect x="48.294" y="279.688" width="104.175" height="15.626"/>
	</g>
</g>
<g>
	<g>
		<rect x="183.722" y="496.372" width="225.017" height="15.626"/>
	</g>
</g>
<g>
	<g>
		<path d="M366.736,16.019h-63.997L302.686,0l-15.993,0.053l0.053,15.966h-63.943c-22.045,0-39.981,17.936-39.981,39.981h15.993
			c0-13.227,10.761-23.988,23.989-23.988h143.932c13.227,0,23.988,10.761,23.988,23.988h15.993
			C406.717,33.955,388.781,16.019,366.736,16.019z"/>
	</g>
</g>
<g>
	<g>
		<rect x="192.055" y="104.675" width="160.429" height="15.626"/>
	</g>
</g>
<g>
	<g>
		<rect x="200.389" y="335.943" width="39.586" height="15.626"/>
	</g>
</g>
<g>
	<g>
		<polygon points="111.842,64.049 111.842,90.977 176.43,162.943 176.43,240.104 192.057,240.104 192.057,156.959 127.468,84.993 
			127.468,79.675 392.072,79.675 392.072,104.677 368.112,104.677 368.112,120.303 392.072,120.303 392.072,335.945 
			272.271,335.945 272.271,351.571 392.072,351.571 392.072,471.372 200.391,471.372 200.391,486.998 407.698,486.998 
			407.698,64.049 		"/>
	</g>
</g>
<g>
	<g>
		<rect x="311.856" y="440.117" width="64.588" height="15.626"/>
	</g>
</g>
<g>
	<g>
		<path d="M458.303,291.089l41.58-31.186V63.997h-79.962v47.978h15.993V79.988h47.978v171.919l-35.183,26.388
			c-18.025,13.52-28.787,35.041-28.787,57.573v7.996H467.9v-31.986h-15.993v15.993h-15.411
			C438.617,313.35,446.437,299.99,458.303,291.089z"/>
	</g>
</g>
</svg>